/home/arham/Downloads/Picolo.png<svg xmlns="http://www.w3.org/2000/svg" xmlns:xlink="http://www.w3.org/1999/xlink" width="750" height="1440" viewBox="0 0 750 1440">
  <defs>
    <linearGradient id="linear-gradient" x1="-0.109" y1="-0.203" x2="1.213" y2="1.218" gradientUnits="objectBoundingBox">
      <stop offset="0" stop-color="#f2b01f"/>
      <stop offset="0.289" stop-color="#034073"/>
      <stop offset="0.597" stop-color="#034073"/>
      <stop offset="1" stop-color="#e3a926"/>
    </linearGradient>
    <linearGradient id="linear-gradient-2" x1="0.762" y1="0.179" x2="0.5" y2="0.462" gradientUnits="objectBoundingBox">
      <stop offset="0" stop-color="#fff"/>
      <stop offset="1" stop-color="gray"/>
    </linearGradient>
    <clipPath id="clip-splash_screen_1">
      <rect width="750" height="1440"/>
    </clipPath>
  </defs>
  <g id="splash_screen_1" data-name="splash screen – 1" clip-path="url(#clip-splash_screen_1)">
    <rect width="750" height="1440" fill="url(#linear-gradient)"/>
    <circle id="Ellipse_2913" data-name="Ellipse 2913" cx="244" cy="244" r="244" transform="translate(-244 1196)" opacity="0.08" fill="url(#linear-gradient-2)"/>
    <circle id="Ellipse_2914" data-name="Ellipse 2914" cx="285" cy="285" r="285" transform="translate(431 -175)" fill="#fff" opacity="0.08"/>
    <text id="Transfer" transform="translate(375 915.606)" fill="#fff" font-size="75" font-family="Roboto-Regular, Roboto" letter-spacing="0.05em"><tspan x="-181.783" y="0">SUPPLIER</tspan></text>
    <text id="Transfer-2" data-name="Transfer" transform="translate(375 840.606)" fill="#fff" font-size="87" font-family="Roboto-Bold, Roboto" font-weight="700" letter-spacing="0.05em"><tspan x="-190.873" y="0">BIGGEST</tspan></text>
    <g id="Group_11373" data-name="Group 11373" transform="translate(289.07 504.394)">
      <path id="Path_18881" data-name="Path 18881" d="M196.848,332.069V107.986H302.993c23.031,0,43.876,16.035,50.132,38.32,5.265,18.753,1.376,35.672-11.448,50.428a21.066,21.066,0,0,0-1.407,2.088c7.8,6.5,14.5,13.716,19.313,22.55a74.459,74.459,0,0,1,9.172,41.3c-1.355,21.116-10.38,38.3-26.062,51.911a67.88,67.88,0,0,1-38.125,16.769,111.091,111.091,0,0,1-11.143.683q-46.006.082-92.011.031Zm22.9-200.955v4.014c0,31.823.044,63.645-.079,95.467-.01,2.71.979,3.856,3.217,4.935,18.9,9.1,37.748,18.317,56.613,27.494,5.438,2.645,10.928.832,13.46-4.431,2.523-5.242.631-10.615-4.827-13.333q-16.68-8.307-33.417-16.5c-12.775-6.277-18.7-20.632-16.516-33.754A33.035,33.035,0,0,1,286.44,170.95c9.587,5.144,19.508,9.657,29.254,14.506,1.944.968,3.579,1.11,5.352-.458,9.488-8.389,13.132-18.83,10.266-31.138-3.037-13.042-14.748-22.463-27.218-22.588-21.07-.21-42.142-.124-63.213-.156C233.992,131.1,227.1,131.114,219.743,131.114Zm.1,177.6c1.238.07,2.153.165,3.068.167q35.808.07,71.616.132c13.352.039,25.18-4.3,34.806-13.436,12.421-11.783,18.179-26.322,16.21-43.73A51.024,51.024,0,0,0,331.2,221.626c-5.235-5.494-11.822-8.956-18.6-12.177-12.543-5.961-24.955-12.2-37.476-18.207a9.65,9.65,0,0,0-13.255,4.7,9.461,9.461,0,0,0,4.536,12.906c10.6,5.237,21.093,10.717,31.852,15.607,13.715,6.235,20.918,21.114,18.283,35.809-3.828,21.354-26.893,33.157-45.615,24.3-15.5-7.33-30.817-15.032-46.226-22.549-1.492-.728-3.054-1.31-4.856-2.075Z" transform="translate(-196.848 -107.986)" fill="#f3aa0c"/>
    </g>
  </g>
</svg>
